HIERARCHY
ROOT root
{
	OFFSET 0.000000 0.000000 0.000000
	CHANNELS 6 Xposition Yposition Zposition Zrotation Yrotation Xrotation
	JOINT lhip
	{
		OFFSET 0.058581 -0.082280 -0.017664
		CHANNELS 3 Zrotation Yrotation Xrotation
		JOINT lknee
		{
			OFFSET 0.043451 -0.386469 0.008037
			CHANNELS 3 Zrotation Yrotation Xrotation
			JOINT lankle
			{
				OFFSET -0.014790 -0.426874 -0.037428
				CHANNELS 3 Zrotation Yrotation Xrotation
				JOINT ltoe
				{
					OFFSET 0.041054 -0.060286 0.122042
					CHANNELS 3 Zrotation Yrotation Xrotation
					End Site
					{
						OFFSET 0.000000 0.000000 0.000000
					}
				}
			}
		}
	}
	JOINT rhip
	{
		OFFSET -0.060310 -0.090513 -0.013543
		CHANNELS 3 Zrotation Yrotation Xrotation
		JOINT rknee
		{
			OFFSET -0.043257 -0.383688 -0.004843
			CHANNELS 3 Zrotation Yrotation Xrotation
			JOINT rankle
			{
				OFFSET 0.019056 -0.420046 -0.034562
				CHANNELS 3 Zrotation Yrotation Xrotation
				JOINT rtoe
				{
					OFFSET -0.034840 -0.062106 0.130323
					CHANNELS 3 Zrotation Yrotation Xrotation
					End Site
					{
						OFFSET 0.000000 0.000000 0.000000
					}
				}
			}
		}
	}
	JOINT lowerback
	{
		OFFSET 0.004439 0.124404 -0.038385
		CHANNELS 3 Zrotation Yrotation Xrotation
		JOINT upperback
		{
			OFFSET 0.004488 0.137956 0.026820
			CHANNELS 3 Zrotation Yrotation Xrotation
			JOINT chest
			{
				OFFSET -0.002265 0.056032 0.002855
				CHANNELS 3 Zrotation Yrotation Xrotation
				JOINT lowerneck
				{
					OFFSET -0.013390 0.211636 -0.033468
					CHANNELS 3 Zrotation Yrotation Xrotation
					JOINT upperneck
					{
						OFFSET 0.010113 0.088937 0.050410
						CHANNELS 3 Zrotation Yrotation Xrotation
						End Site
						{
							OFFSET 0.000000 0.000000 0.000000
						}
					}
				}
				JOINT lclavicle
				{
					OFFSET 0.071702 0.114000 -0.018898
					CHANNELS 3 Zrotation Yrotation Xrotation
					JOINT lshoulder
					{
						OFFSET 0.122921 0.045205 -0.019046
						CHANNELS 3 Zrotation Yrotation Xrotation
						JOINT lelbow
						{
							OFFSET 0.255332 -0.015649 -0.022946
							CHANNELS 3 Zrotation Yrotation Xrotation
							JOINT lwrist
							{
								OFFSET 0.265709 0.012698 -0.007375
								CHANNELS 3 Zrotation Yrotation Xrotation
								End Site
								{
									OFFSET 0.000000 0.000000 0.000000
								}
							}
						}
					}
				}
				JOINT rclavicle
				{
					OFFSET -0.082954 0.112472 -0.023707
					CHANNELS 3 Zrotation Yrotation Xrotation
					JOINT rshoulder
					{
						OFFSET -0.113228 0.046853 -0.008472
						CHANNELS 3 Zrotation Yrotation Xrotation
						JOINT relbow
						{
							OFFSET -0.260127 -0.014369 -0.031269
							CHANNELS 3 Zrotation Yrotation Xrotation
							JOINT rwrist
							{
								OFFSET -0.269108 0.006794 -0.006027
								CHANNELS 3 Zrotation Yrotation Xrotation
								End Site
								{
									OFFSET 0.000000 0.000000 0.000000
								}
							}
						}
					}
				}
			}
		}
	}
}
MOTION
Frames: 15
Frame Time: 0.033333
0.076986 -0.274195 0.134595 175.513168 -0.856293 -174.043415 8.352629 17.256743 -10.320893 -1.440312 26.580393 4.588299 -5.306917 18.844254 6.557427 0.000000 -0.000000 0.000000 -9.554138 -18.879021 -11.297762 -1.303636 -35.857628 5.431008 1.715091 -17.647112 8.683722 0.000000 -0.000000 0.000000 -2.750024 2.554472 -19.591670 -0.113557 -4.397220 22.353286 -0.163329 -0.604443 -9.029766 -13.774105 27.877179 6.201079 -8.973028 15.928334 -18.863147 4.239434 -14.110306 -2.637066 8.132603 -5.226505 -26.689493 113.919183 -42.199492 -116.574152 9.494226 -18.577610 -13.494299 -6.390785 12.814172 -2.986168 1.237120 2.459937 -29.011831 -115.716903 41.248336 -123.454330 -15.983124 25.151848 -29.681882 
0.077005 -0.274043 0.135580 175.597461 -1.037693 -173.561936 8.273414 16.858086 -11.036101 -1.257566 27.099937 4.781666 -5.503912 18.841233 6.496425 0.000000 -0.000000 0.000000 -9.290726 -18.693431 -11.900400 -1.392394 -36.028247 5.493499 1.251807 -17.765096 9.064196 0.000000 -0.000000 0.000000 -2.638890 2.443964 -19.482243 -0.095333 -4.524359 21.677477 -0.203436 -0.567317 -8.760069 -13.407221 26.984126 4.540220 -9.308763 15.782358 -18.474821 4.327050 -13.587672 -3.268633 7.911021 -5.829422 -25.987412 113.990862 -41.904154 -115.795824 9.557077 -18.363381 -14.243063 -6.365408 12.387355 -3.719098 1.311397 2.931405 -28.400425 -115.976192 41.166043 -123.186639 -16.198111 24.792415 -30.047110 
0.077137 -0.274189 0.135674 175.818176 -1.116164 -173.339039 8.449976 16.893450 -11.428112 -1.198993 27.367682 5.017634 -5.799078 18.800624 6.323816 0.000000 -0.000000 0.000000 -8.976996 -18.570283 -12.207273 -1.523241 -36.092991 5.664233 1.202470 -17.773692 8.999286 0.000000 -0.000000 0.000000 -2.349952 2.460157 -19.604824 -0.121167 -4.618728 21.272454 -0.243101 -0.601711 -8.377110 -13.261457 27.066812 4.502282 -9.404717 15.714159 -18.359138 4.491943 -13.508279 -3.453757 7.463882 -5.884245 -25.797405 114.182812 -42.006515 -115.218345 10.042600 -19.018154 -14.029081 -6.595377 12.396373 -3.746698 1.600434 2.943175 -28.376847 -116.034371 41.182673 -123.005659 -16.711832 24.943651 -30.424832 
0.077499 -0.274410 0.136015 176.193020 -1.289601 -172.985197 8.774290 16.945049 -12.121732 -1.081788 27.156830 5.386995 -6.211507 19.027695 6.186265 0.000000 -0.000000 0.000000 -8.427366 -18.456018 -12.530529 -1.455459 -36.165866 5.498096 1.037304 -17.993740 9.081636 0.000000 -0.000000 0.000000 -1.975449 2.467894 -19.862440 0.082403 -4.964735 21.299964 -0.225397 -0.413520 -9.113360 -13.608145 27.582652 6.192771 -7.917052 16.374641 -17.335502 3.604480 -13.589820 -2.041746 8.070840 -5.931671 -27.037356 114.130770 -42.235248 -115.784992 9.034313 -18.464101 -13.853456 -6.857773 12.238499 -2.233680 1.343979 3.119954 -29.731988 -115.839493 41.561132 -123.069165 -16.284226 24.887123 -30.429679 
0.077687 -0.274369 0.136153 176.245969 -1.302803 -172.919254 8.824767 16.899711 -12.238750 -1.025127 27.164972 5.440162 -6.207116 19.016610 6.229390 0.000000 -0.000000 0.000000 -8.304328 -18.377957 -12.584962 -1.456675 -36.168769 5.370458 1.011879 -18.089870 9.174511 0.000000 -0.000000 0.000000 -1.954237 2.494021 -19.731325 0.130258 -5.024312 20.827641 -0.251868 -0.390706 -8.901807 -13.720266 27.405338 6.174766 -7.818209 16.557048 -17.393692 3.681324 -13.470388 -1.982986 7.989380 -6.167606 -27.171813 114.165304 -42.097250 -116.297522 8.170089 -17.862627 -14.480527 -6.818135 12.210628 -2.221193 1.338930 3.200161 -29.896664 -115.837017 41.599080 -123.165838 -15.519272 24.810052 -30.154705 
0.077993 -0.274285 0.136538 176.426189 -1.395621 -172.818133 9.048675 16.923641 -12.547022 -0.912789 27.252574 5.719922 -6.403301 18.909606 6.268911 0.000000 -0.000000 0.000000 -7.989125 -18.318905 -12.758970 -1.602516 -36.293624 5.391148 1.112349 -18.177384 9.124263 0.000000 -0.000000 0.000000 -1.868019 2.593557 -19.627699 0.185190 -5.022408 20.263437 -0.109502 -0.509110 -8.492035 -13.616332 27.547188 6.156545 -7.785569 16.370714 -17.218150 3.704813 -13.711981 -2.154549 7.675447 -6.026847 -27.131434 114.358172 -42.652113 -115.355244 9.642362 -19.202705 -13.665887 -6.872239 12.316215 -2.397202 1.316544 3.007663 -29.889280 -115.876836 41.871458 -123.095903 -16.435381 25.042675 -30.650891 
0.077960 -0.274186 0.136994 176.484649 -1.503048 -172.638649 9.103394 16.752436 -12.854309 -0.884896 27.461148 5.843424 -6.429786 18.913043 6.232210 0.000000 -0.000000 0.000000 -7.872694 -18.303479 -13.093424 -1.769469 -36.504658 5.652838 1.239554 -18.198827 8.965812 0.000000 -0.000000 0.000000 -1.625229 2.607179 -19.642767 0.115407 -5.173826 19.689789 -0.334569 -0.573976 -7.891528 -13.813705 27.409275 6.044942 -7.792677 16.342692 -17.595492 4.119452 -13.218442 -2.286992 7.122766 -6.570526 -27.317053 114.587162 -42.275523 -116.122861 7.939992 -18.163353 -14.399075 -7.024050 12.043673 -2.617162 1.724755 3.633562 -30.076442 -116.016035 41.762433 -123.066736 -15.207245 24.920808 -30.197168 
0.078013 -0.274302 0.137408 176.670788 -1.577083 -172.520555 9.309216 16.693239 -13.193443 -0.771560 27.685523 6.155761 -6.234080 18.823134 6.254010 0.000000 -0.000000 0.000000 -7.639862 -18.217485 -13.352592 -1.880194 -36.801587 5.870614 1.161348 -18.192434 8.858186 0.000000 -0.000000 0.000000 -1.151737 2.566598 -19.608615 -0.048728 -5.175152 19.376814 -0.485855 -0.616232 -7.800343 -13.642048 27.642062 6.363908 -7.809235 16.106484 -17.681381 4.311409 -13.398585 -2.583498 6.789991 -6.398130 -26.932495 114.602869 -42.787863 -115.063753 9.666482 -19.493117 -13.984967 -7.822776 12.116777 -3.270898 2.999222 3.712835 -29.596499 -116.416413 42.138798 -122.845935 -16.601435 25.235451 -31.057035 
0.078192 -0.274933 0.137649 176.865563 -1.668443 -172.397443 9.527597 16.740041 -13.491905 -0.712336 27.863307 6.353585 -6.631859 18.779789 6.139679 0.000000 -0.000000 0.000000 -7.356932 -18.283399 -13.560490 -1.960852 -36.983842 5.938515 1.287070 -18.106846 8.812037 0.000000 -0.000000 0.000000 -1.023804 2.688062 -19.694368 0.071235 -5.226539 19.321466 -0.497762 -0.610131 -7.737029 -13.649596 27.466389 6.133359 -7.663896 16.123476 -17.289999 4.074762 -13.483296 -2.677016 7.110904 -6.797686 -26.770006 114.478137 -42.907656 -115.340486 9.947994 -19.278674 -13.416767 -7.308693 12.280895 -2.981436 1.999132 3.271328 -29.726687 -116.067910 42.098360 -122.978796 -16.691103 25.192804 -30.839741 
0.078329 -0.275139 0.138068 176.979845 -1.774971 -172.258417 9.614134 16.641440 -13.772107 -0.628707 27.889923 6.491792 -6.673033 18.831559 6.105617 0.000000 -0.000000 0.000000 -7.104948 -18.191071 -13.700734 -1.960483 -36.927002 5.817096 1.190010 -18.344888 8.750882 0.000000 -0.000000 0.000000 -0.892647 2.705232 -19.505950 0.072458 -5.311312 18.529392 -0.456524 -0.650165 -7.253904 -13.897165 27.381459 6.081441 -7.564270 16.138502 -17.540381 4.047862 -13.441440 -2.719629 7.041894 -6.783636 -26.883771 114.572580 -42.972819 -115.450579 9.767940 -19.288765 -13.578455 -7.290764 12.267493 -2.929197 1.862773 3.388636 -29.993997 -116.023288 42.198147 -122.965359 -16.398151 25.103175 -30.813637 
0.078395 -0.275218 0.138408 177.042863 -1.851224 -172.177435 9.667941 16.558355 -13.957463 -0.580542 27.876571 6.588834 -6.473062 18.848389 6.113177 0.000000 -0.000000 0.000000 -6.979334 -18.167342 -13.809377 -1.994762 -36.904073 5.772399 1.324622 -18.488790 8.801806 0.000000 -0.000000 0.000000 -0.797215 2.728654 -19.323653 0.053614 -5.385328 17.928824 -0.460718 -0.693698 -6.910799 -13.948961 27.426188 6.005506 -7.420475 16.218099 -17.473346 4.098091 -13.490730 -2.813237 7.021145 -6.611441 -27.021392 114.512068 -43.080128 -115.163762 9.476491 -19.410411 -13.880291 -7.344831 12.299230 -2.982734 1.917643 3.437711 -30.100642 -116.004676 42.238111 -122.861522 -16.070073 25.129701 -30.812090 
0.078706 -0.275431 0.138413 177.290669 -1.978315 -172.125255 10.031247 16.497487 -14.148459 -0.605759 27.866250 6.780767 -6.227733 18.798405 6.156253 0.000000 -0.000000 0.000000 -6.645910 -18.105587 -13.906506 -2.067733 -36.958064 5.762540 1.259944 -18.675740 8.813094 0.000000 -0.000000 0.000000 -0.522877 2.868418 -19.067194 0.119957 -5.499485 17.206785 -0.489231 -0.804759 -6.443169 -13.845908 27.509863 5.783310 -7.348953 16.259557 -17.029722 4.257262 -13.562138 -2.931843 6.740501 -6.636854 -27.268966 114.546157 -43.281335 -114.982160 9.014738 -19.594657 -14.106587 -7.526541 12.304285 -3.215461 2.004034 3.477501 -30.231024 -115.881414 42.385914 -122.787532 -15.563837 25.183645 -30.826752 
0.078935 -0.275397 0.138245 177.522575 -1.939668 -172.138118 10.324766 16.616918 -14.192769 -0.565508 27.885558 6.914413 -6.343417 18.708978 6.167688 0.000000 -0.000000 0.000000 -6.358447 -18.120926 -13.978082 -2.165266 -36.883872 5.800998 1.318133 -18.667435 8.923252 0.000000 -0.000000 0.000000 -0.133136 2.940178 -18.894325 0.087705 -5.526794 16.781483 -0.615545 -0.822145 -6.037589 -13.847978 27.657555 5.469741 -7.325206 16.248036 -16.797956 4.286389 -13.454876 -3.037692 6.710968 -6.736915 -27.455354 114.678654 -43.487782 -115.073062 9.028948 -19.529044 -14.245962 -7.508482 12.280505 -3.128319 1.909065 3.550087 -30.608722 -115.843600 42.490463 -122.742813 -15.320999 25.244734 -30.783895 
0.079177 -0.275627 0.138680 177.690981 -2.065338 -171.900225 10.479709 16.502892 -14.654021 -0.441155 27.902017 7.152080 -6.404420 18.638137 6.288796 0.000000 -0.000000 0.000000 -6.093676 -18.065074 -14.280082 -2.171764 -37.030404 5.763112 1.275567 -18.731016 9.001142 0.000000 -0.000000 0.000000 -0.019171 2.961769 -19.013544 0.163431 -5.651429 16.638663 -0.535550 -0.839007 -6.077749 -13.943389 27.583516 5.424328 -7.255687 16.300419 -16.623014 4.373429 -13.722348 -2.798003 6.429386 -6.464710 -27.602561 114.787253 -43.452442 -115.052184 9.064386 -19.558231 -14.075151 -7.687755 12.514202 -2.767246 1.978760 3.347799 -30.943545 -115.798380 42.494739 -122.698137 -15.428209 25.326682 -30.873253 
0.079657 -0.275703 0.138720 177.916224 -2.008414 -171.862025 10.800677 16.627628 -14.796534 -0.429834 27.903061 7.384229 -6.530724 18.593276 6.260532 0.000000 -0.000000 0.000000 -5.813930 -17.854128 -14.397735 -2.241238 -36.981457 5.833941 1.056101 -18.775284 8.950415 0.000000 -0.000000 0.000000 0.196098 3.009207 -18.786252 0.231596 -5.575747 16.225747 -0.541366 -0.848386 -5.862656 -13.898983 27.605889 5.400723 -7.361857 16.143627 -17.008352 4.601799 -13.834081 -2.785604 6.167191 -6.446957 -27.756800 114.865156 -43.489411 -114.799161 9.036345 -19.627703 -13.987819 -7.935492 12.586402 -2.971635 2.260367 3.286052 -31.035535 -115.803838 42.566594 -122.506754 -15.347880 25.363229 -31.091446 
